<?xml version="1.0" standalone="no"?><!DOCTYPE svg PUBLIC "-//W3C//DTD SVG 1.1//EN" "http://www.w3.org/Graphics/SVG/1.1/DTD/svg11.dtd"><svg t="1683818848512" class="icon" viewBox="0 0 1056 1024" version="1.1" xmlns="http://www.w3.org/2000/svg" p-id="2800" width="309.375" height="300" xmlns:xlink="http://www.w3.org/1999/xlink"><path d="M810.004517 349.30302s111.948773-106.145715-91.923651-292.631809c0 0-92.449125 244.71088 91.923651 292.631809z" fill="#006837" p-id="2801"></path><path d="M88.471825 641.991946L19.212089 717.671601l10.34955 58.910186L75.734796 860.17782l51.74775 41.3982 110.669358 58.121975 140.118741 25.474058 81.208554-9.721266 84.384244-16.552426s83.607456-38.176816 160.840686-109.058667 108.28188-111.468993 108.28188-111.468993l40.609989-149.645809v-98.754811L806.60036 387.251369l-86.817416-85.983512-118.11738-76.707756-80.8887-11.651811-89.170625 5.574592-72.458272 36.623241-55.723074 31.04865-54.934862 63.685144-0.799634 52.547383-22.286945 61.309089-26.273691 37.422876-43.751409 65.284412-39.798931 44.551042z m0 0" fill="#FFD217" p-id="2802"></path><path d="M346.422361 1002.695463s57.013911-14.07356 134.555572-27.87296c163.353822-29.060988 377.45014-174.24027 377.370176-417.911625-6.52273-166.346739-139.616113-265.215783-163.879296-282.476456-90.609966-64.381968-198.035096-82.864939-205.414576-67.329191-11.183454 23.554936 222.412512 94.082663 268.99691 275.987996 15.352975 59.91544 15.798485 117.123548 7.927801 170.881807C726.385637 801.210518 641.88716 855.916913 593.223713 886.451512s-246.744235 116.243951-246.744235 116.243951z m0 0" fill="#F9B50B" p-id="2803"></path><path d="M755.652245 848.914403a616.449348 616.449348 0 0 1-61.583249 53.689718c-5.711672 3.358463-17.854687 2.387479-25.702525-5.471782a22.949499 22.949499 0 0 1 1.062371-33.413282c79.369396-61.526132 172.766658-164.33623 166.015462-305.003291-7.333787-152.947156-129.73492-247.429636-154.215147-264.827389-28.946754-20.56202-96.755726-68.791379-190.769849-63.19394-75.553999 4.455104-130.134737 40.849879-155.928648 62.177262-40.827032 33.698865-52.627347 64.233465-70.447764 110.429469-12.565679 32.590801-28.272777 73.177943-58.430406 124.971386-45.08794 77.290347-85.846432 117.043585-115.604243 146.058879s-43.488671 42.266374-44.048416 72.275499c-0.742517 41.77517 25.759641 88.211064 74.674401 130.568825 45.133633 39.090684 106.591225 71.818565 164.404771 87.571356 106.328488 28.958178 203.392644 0.502627 266.16392-28.466973a22.949499 22.949499 0 1 1 19.111255 41.740899C527.779374 997.623498 484.450629 1010.965964 441.521702 1017.751431c-57.505115 9.047289-114.233442 6.100066-168.562868-8.704589-65.113062-17.751877-131.562655-53.164244-182.430807-97.201236-27.758726-23.989023-49.611584-49.611584-64.975982-75.919545C8.108598 805.985475-0.481756 775.645073 0.020871 745.773028c0.891021-48.81195 26.045225-73.326447 57.916355-104.38652 27.87296-27.176136 66.049776-64.427661 108.00772-136.314766 28.329894-48.57206 42.620497-85.606542 55.323256-118.35727 18.917058-49.12038 33.893062-87.89121 83.984426-129.232293 30.123359-24.86862 93.877043-67.397731 182.442231-72.606776 110.235272-6.52273 190.073025 50.262715 220.11642 71.612945 14.964581 10.635133 53.758258 40.461485 90.838433 87.708437C849.917681 409.435504 877.653561 480.922792 881.297608 556.511061c3.575507 74.525898-17.04363 146.458696-61.229125 213.913544a483.276001 483.276001 0 0 1-62.828393 76.913377l-1.644962 1.644961z m0 0" fill="" p-id="2804"></path><path d="M539.202718 988.78183l-13.216809-41.70663c38.576633-12.234402 67.877511-30.214745 96.207405-47.601075l4.055287-2.501713c60.315258-36.931672 92.848942-75.291262 93.157372-75.633962l33.584632 28.067157c-1.485035 1.782042-37.068752 43.991299-103.838199 84.921141l-4.043863 2.387479c-29.140951 17.93465-62.188686 38.22251-105.905825 52.067603zM784.633269 354.797648l-11.743198-3.050033c-50.890999-13.228233-87.708437-41.215426-109.424214-83.161945-50.011401-96.641492 0.37697-232.647829 2.535982-238.382348L677.425183 0l23.829096 21.795741c85.435191 78.147098 129.08379 153.415513 129.700651 223.73762 0.571167 64.073538-35.937841 99.383095-37.491416 100.913823zM697.084759 78.558338c-10.669404 42.140717-22.663915 116.095447 5.300432 170.013632 14.10783 27.164713 36.497585 45.853304 68.220211 56.808291 7.265247-10.977834 17.135016-31.42562 16.563849-60.749344-0.959561-49.760087-31.962517-106.728305-90.084492-166.072579z" fill="" p-id="2805"></path><path d="M747.587364 333.561651s76.970493-25.531174 134.795462 55.974387c-0.011423 0-109.915418 14.850347-134.795462-55.974387z" fill="#006837" p-id="2806"></path><path d="M901.45981 425.519573c-50.171328 0-130.580248-12.839839-154.56927-91.078324l-6.020103-19.625305 19.214065-7.253824c40.210172-15.204471 133.310427-17.66049 197.623855 81.448444L975.860051 416.952064l-32.830691 5.551746a266.335271 266.335271 0 0 1-41.56955 3.015763z m-101.496413-81.516985c22.275521 29.883469 64.519048 36.977365 95.956091 37.697036-34.966857-34.624156-72.355462-39.159224-95.956091-37.708459z" fill="" p-id="2807"></path><path d="M432.73715 333.298915a14.199217 14.199217 0 1 0 14.21064-14.210641 14.199217 14.199217 0 0 0-14.21064 14.210641zM326.488625 376.878973a11.263417 11.263417 0 1 0 11.263418-11.263418 11.263417 11.263417 0 0 0-11.263418 11.263418zM386.712496 440.518423a18.608628 18.608628 0 1 0 37.205832 0 18.608628 18.608628 0 1 0-37.205832 0zM520.377047 462.062851a9.298602 9.298602 0 0 0 18.608628 0 9.298602 9.298602 0 1 0-18.608628 0zM658.473855 393.214355a11.754621 11.754621 0 1 0 15.341552-17.808994 11.754621 11.754621 0 1 0-15.341552 17.808994zM483.662419 394.013989a10.772214 10.772214 0 1 0 10.772213-10.772213 10.772214 10.772214 0 0 0-10.772213 10.772213zM452.316762 479.689071a8.327618 8.327618 0 1 0 16.643813 0 8.327618 8.327618 0 1 0-16.643813 0zM505.195422 334.761103a5.380395 5.380395 0 0 0 10.772214 0 5.380395 5.380395 0 1 0-10.772214 0zM562.483494 355.825749a7.836414 7.836414 0 0 0 15.672828 0 7.836414 7.836414 0 0 0-15.672828 0zM580.600918 422.892203a10.28101 10.28101 0 1 0 10.28101-10.281009 10.28101 10.28101 0 0 0-10.28101 10.281009zM428.818943 376.878973a7.34521 7.34521 0 0 0 14.690421 0 7.34521 7.34521 0 0 0-14.690421 0z" fill="#FFDA3E" p-id="2808"></path><path d="M715.46492 664.370277a21.887128 21.887128 0 0 1-21.350231-26.707779c24.35457-107.516516-44.002722-178.798184-46.927098-181.779677a21.875704 21.875704 0 0 1 31.08292-30.843029c3.6212 3.644047 88.336721 90.701353 58.521792 222.229739a21.887128 21.887128 0 0 1-21.327383 17.100746z" fill="#FFFFFF" p-id="2809"></path><path d="M390.150923 641.752055A14.576187 14.576187 0 0 1 375.574736 627.141598a23.817673 23.817673 0 1 0-47.635346 0 14.587611 14.587611 0 0 1-29.175221 0 52.992894 52.992894 0 1 1 105.985788 0 14.576187 14.576187 0 0 1-14.599034 14.610457zM608.885118 633.401591a14.576187 14.576187 0 0 1-14.587611-14.587611 23.817673 23.817673 0 0 0-47.635345 0 14.587611 14.587611 0 0 1-29.175221 0 52.992894 52.992894 0 0 1 105.985788 0A14.576187 14.576187 0 0 1 608.885118 633.401591zM472.456118 809.469595a53.050011 53.050011 0 0 1-52.992894-52.992893 14.587611 14.587611 0 0 1 29.175221 0 23.817673 23.817673 0 1 0 47.635346 0 14.587611 14.587611 0 0 1 29.175221 0 53.050011 53.050011 0 0 1-52.992894 52.992893z" fill="" p-id="2810"></path></svg>